# xmcd
#
# Track frame offsets:
#	150
#	12969
#	27452
#	38403
#
# Disc length: 624 seconds
#
# Revision: 1
# Processed by: cddbd v1.5.2PL0 Copyright (c) Steve Scherf et al.
# Submitted via: audiograbber 1.83.01
#
DISCID=23026e04
DTITLE=Casino Express - Rubbeldikatz am Borsigplatz
DYEAR=2011
DGENRE=
TTITLE0=Rubbeldiekatz am Borsigplatz
TTITLE1=Auf Wiederseh'n Dede
TTITLE2=Das ist doch sonnenklar
TTITLE3=Que sérá
EXTD=
EXTT0=
EXTT1=
EXTT2=
EXTT3=
PLAYORDER=
